PathFileType	4	(X/Y/Z)	/Users/itak/Documents/Research/Walk-IL/dataset/trc/00498_00183.trc
DataRate	CameraRate	NumFrames	NumMarkers	Units	OrigDataRate	OrigDataStartFrame	OrigNumFrames
100.000000	100.000000	4	56	mm	100.000000	253	677
Frame#	Time	RPSI			LPSI			L3			STRN			T10			C7			CLAV			RBAK			LBAK			LSHO			LUPA			LAEL			LAOL			LWTS			LWPS			LFRA			LIFD			LHPS			LHTS			RSHO			RUPA			RAEL			RAOL			RWTS			RWPS			RFRA			RIFD			RHTS			RHPS			RBHD			LFHD			RFHD			LBHD			LHIP			RHIP			RASI			LASI			LKNE			LTHI			LANK			LTIP			LTOE			LMT1			LMT5			LHEE			RKNE			RTHI			RANK			RTIP			RTOE			RMT1			RMT5			RHEE			*53			*54			*55			
		X1	Y1	Z1	X2	Y2	Z2	X3	Y3	Z3	X4	Y4	Z4	X5	Y5	Z5	X6	Y6	Z6	X7	Y7	Z7	X8	Y8	Z8	X9	Y9	Z9	X10	Y10	Z10	X11	Y11	Z11	X12	Y12	Z12	X13	Y13	Z13	X14	Y14	Z14	X15	Y15	Z15	X16	Y16	Z16	X17	Y17	Z17	X18	Y18	Z18	X19	Y19	Z19	X20	Y20	Z20	X21	Y21	Z21	X22	Y22	Z22	X23	Y23	Z23	X24	Y24	Z24	X25	Y25	Z25	X26	Y26	Z26	X27	Y27	Z27	X28	Y28	Z28	X29	Y29	Z29	X30	Y30	Z30	X31	Y31	Z31	X32	Y32	Z32	X33	Y33	Z33	X34	Y34	Z34	X35	Y35	Z35	X36	Y36	Z36	X37	Y37	Z37	X38	Y38	Z38	X39	Y39	Z39	X40	Y40	Z40	X41	Y41	Z41	X42	Y42	Z42	X43	Y43	Z43	X44	Y44	Z44	X45	Y45	Z45	X46	Y46	Z46	X47	Y47	Z47	X48	Y48	Z48	X49	Y49	Z49	X50	Y50	Z50	X51	Y51	Z51	X52	Y52	Z52	X53	Y53	Z53	X54	Y54	Z54	X55	Y55	Z55	X56	Y56	Z56	

254	2.53	-903.6883544921875	963.2910766601562	-316.0005493164062	-842.0724487304688	957.0723876953125	-423.1498413085938	-866.7383422851562	1034.471923828125	-376.1240844726562	-664.0994262695312	1183.858764648438	-287.4605102539062	-878.992431640625	1138.967407226562	-379.1422119140625	-830.1864013671875	1367.121826171875	-353.6776123046875	-692.3775634765625	1280.585327148438	-298.0239868164062	-914.1569213867188	1247.434692382812	-297.9807434082031	-821.3639526367188	1316.740356445312	-446.4962463378906	-701.669677734375	1357.554321289062	-474.6736450195312	-692.5881958007812	1232.574584960938	-539.0054321289062	-688.8811645507812	1022.190124511719	-566.2830810546875	-784.0413208007812	1020.334167480469	-540.8099365234375	-641.9359130859375	828.2852783203125	-492.4769897460938	-693.2447509765625	798.4578247070312	-565.4098510742188	-677.587158203125	943.4848022460938	-561.8994140625	-657.9869384765625	671.8692626953125	-484.7177429199219	-679.3193359375	742.7973022460938	-550.6615600585938	-632.0853271484375	749.1246948242188	-506.1380310058594	-837.146484375	1355.5009765625	-195.5475921630859	-877.0369873046875	1288.661865234375	-150.3922882080078	-887.7714233398438	1020.464721679688	-106.1420059204102	-926.69287109375	1003.988220214844	-157.8016357421875	-774.2478637695312	823.0523071289062	-106.6735534667969	-860.1130981445312	798.4044799804688	-85.64610290527344	-883.09326171875	965.9470825195312	-98.25038146972656	-768.5347900390625	663.2940063476562	-101.778923034668	-765.1597290039062	729.76318359375	-77.63697052001953	-836.2015991210938	725.5139770507812	-76.74199676513672	-828.3656616210938	1509.277099609375	-251.0458374023438	-648.9920654296875	1578.271362304688	-309.0768432617188	-711.8353881835938	1561.4990234375	-199.1882019042969	-762.9381713867188	1527.09716796875	-396.140869140625	-690.3033447265625	874.28857421875	-489.1345825195312	-865.1275024414062	871.2333984375	-152.5769348144531	-744.0828857421875	914.7427368164062	-168.9627532958984	-637.7233276367188	907.8881225585938	-386.397216796875	-745.7778930664062	455.4246215820312	-460.1376647949219	-697.7192993164062	609.8506469726562	-462.9134826660156	-981.3556518554688	101.3280563354492	-586.7000732421875	-821.1023559570312	328.3463134765625	-507.9491271972656	-867.2372436523438	38.141845703125	-441.4845275878906	-939.3858032226562	56.72872924804688	-450.3788146972656	-892.6984252929688	51.13571548461914	-544.7128295898438	-1047.941650390625	125.2727737426758	-555.1732177734375	-772.0750732421875	486.7513122558594	-159.3143310546875	-830.2262573242188	741.8526000976562	-136.9081573486328	-776.1144409179688	49.30312728881836	-201.9945220947266	-741.6632080078125	341.355224609375	-165.8834381103516	-578.154541015625	50.49725723266602	-146.6680908203125	-618.8822021484375	51.84150695800781	-211.4778594970703	-682.9265747070312	50.13737869262695	-138.4551391601562	-798.8333129882812	37.00610733032227	-268.0679016113281	nan	nan	nan	nan	nan	nan	nan	nan	nan	
255	2.54	-899.184326171875	963.3929443359375	-311.2084350585938	-838.2505493164062	957.1524047851562	-418.8184814453125	-863.1032104492188	1034.523681640625	-371.7216186523438	-660.9127197265625	1184.429443359375	-283.0433044433594	-875.4683837890625	1138.968139648438	-374.4423217773438	-827.3390502929688	1367.279541015625	-349.5005493164062	-689.3269653320312	1281.095703125	-293.7590026855469	-911.042236328125	1247.471557617188	-293.6257934570312	-818.469482421875	1316.806640625	-442.273193359375	-698.8052978515625	1357.735107421875	-470.492431640625	-689.6633911132812	1232.770263671875	-534.7131958007812	-685.7847290039062	1022.373413085938	-561.83984375	-780.939208984375	1020.457580566406	-536.3013916015625	-638.5678100585938	828.6038208007812	-488.0608215332031	-689.8153076171875	798.681396484375	-561.00146484375	-674.3703002929688	943.7420043945312	-557.494140625	-654.4892578125	672.0986938476562	-480.2919006347656	-675.8839721679688	743.0421752929688	-546.2344360351562	-628.6194458007812	749.4747924804688	-501.6866455078125	-834.2752685546875	1355.861328125	-191.3426666259766	-873.9964599609375	1288.9560546875	-146.1419830322266	-884.1412963867188	1020.72900390625	-101.8118209838867	-922.9894409179688	1004.14404296875	-153.4608459472656	-770.28271484375	823.4521484375	-102.1971130371094	-856.1505126953125	798.6820068359375	-81.45077514648438	-879.3831787109375	966.2009887695312	-93.92099761962891	-764.4235229492188	663.6923217773438	-97.4105224609375	-761.14453125	730.13623046875	-73.22413635253906	-832.1715087890625	725.7958374023438	-72.52693939208984	-825.60400390625	1509.828979492188	-247.3744201660156	-646.4622192382812	1578.889038085938	-306.0747680664062	-709.0159301757812	1562.476806640625	-195.9745178222656	-760.5386962890625	1527.162963867188	-392.6680908203125	-686.3292846679688	874.6982421875	-484.851318359375	-861.0662841796875	871.2510986328125	-148.1954498291016	-740.0673217773438	914.989990234375	-164.4855499267578	-634.0232543945312	908.4686889648438	-382.0172729492188	-737.7404174804688	455.1703186035156	-455.3629760742188	-691.1416015625	610.03662109375	-458.1050109863281	-977.87841796875	105.5260925292969	-585.5474243164062	-814.12158203125	329.5119934082031	-504.3810119628906	-866.9235229492188	38.07696151733398	-441.43115234375	-937.7705078125	57.94974517822266	-449.7525024414062	-891.0103149414062	51.98777770996094	-544.3685302734375	-1043.523193359375	131.0586395263672	-553.5711669921875	-769.2169189453125	486.3349304199219	-156.4936065673828	-826.1015625	741.9227905273438	-132.2755584716797	-775.8775024414062	49.30771636962891	-201.8962097167969	-739.5603637695312	340.8036804199219	-164.0842437744141	-577.7088623046875	49.00160217285156	-146.6525421142578	-618.5914916992188	51.23383712768555	-211.3935241699219	-682.6019897460938	49.64846038818359	-138.2423858642578	-798.6949462890625	37.21165084838867	-267.9336547851562	nan	nan	nan	nan	nan	nan	nan	nan	nan	
256	2.55	-894.6659545898438	963.50146484375	-306.3970947265625	-834.5121459960938	957.232177734375	-414.546630859375	-859.4996337890625	1034.575073242188	-367.3349609375	-657.7312622070312	1184.975952148438	-278.6755676269531	-871.9818115234375	1138.956909179688	-369.7958068847656	-824.5096435546875	1367.416748046875	-345.3459777832031	-686.3010864257812	1281.584838867188	-289.5417175292969	-907.9476928710938	1247.490356445312	-289.30126953125	-815.6015014648438	1316.859130859375	-438.0806884765625	-695.9736938476562	1357.905395507812	-466.3458251953125	-686.761962890625	1232.948364257812	-530.4509887695312	-682.6976928710938	1022.542541503906	-557.3973999023438	-777.8287353515625	1020.54345703125	-531.73193359375	-635.05712890625	828.9571533203125	-483.6607666015625	-686.3093872070312	798.8949584960938	-556.54541015625	-671.136962890625	943.9749145507812	-553.0808715820312	-650.6793823242188	672.332275390625	-475.86328125	-672.2894287109375	743.2906494140625	-541.7733154296875	-624.9645385742188	749.8607788085938	-497.2574768066406	-831.4181518554688	1356.203247070312	-187.1707458496094	-870.9686279296875	1289.231689453125	-141.9205169677734	-880.5263671875	1020.988647460938	-97.48079681396484	-919.3030395507812	1004.292785644531	-149.1196899414062	-766.33056640625	823.8411865234375	-97.72755432128906	-852.2249145507812	798.958740234375	-77.23674011230469	-875.6803588867188	966.441650390625	-89.59720611572266	-760.334716796875	664.074951171875	-93.01773834228516	-757.1583862304688	730.5027465820312	-68.79323577880859	-828.1641235351562	726.0744018554688	-68.29553985595703	-822.8369140625	1510.370849609375	-243.7267456054688	-643.935546875	1579.458984375	-303.1006774902344	-706.1770629882812	1563.405883789062	-192.7779388427734	-758.1322631835938	1527.208740234375	-389.1902465820312	-682.4528198242188	875.073486328125	-480.6206665039062	-857.011962890625	871.2266845703125	-143.8655700683594	-736.0652465820312	915.1890258789062	-160.0586090087891	-630.3767700195312	909.0301513671875	-377.69677734375	-729.2160034179688	454.8814697265625	-450.5883178710938	-684.444091796875	610.2173461914062	-453.3679504394531	-974.010009765625	110.0279235839844	-584.2467041015625	-806.6240844726562	330.6937561035156	-500.7132873535156	-866.555419921875	37.96464157104492	-441.3498840332031	-935.9744262695312	59.28942108154297	-449.0924377441406	-889.181884765625	52.97745895385742	-543.9520874023438	-1038.599853515625	137.1912841796875	-551.7774658203125	-766.3648681640625	485.9091186523438	-153.6949920654297	-821.9885864257812	741.943359375	-127.6912612915039	-775.6557006835938	49.30515670776367	-201.7793121337891	-737.4776000976562	340.2518005371094	-162.2854461669922	-577.3279418945312	47.62861633300781	-146.6294555664062	-618.3349609375	50.69626998901367	-211.2925567626953	-682.3193359375	49.14593887329102	-138.0062561035156	-798.571044921875	37.41269302368164	-267.8070983886719	nan	nan	nan	nan	nan	nan	nan	nan	nan	
257	2.56	-890.2403564453125	963.6226806640625	-301.627685546875	-830.880615234375	957.3184814453125	-410.33154296875	-855.9283447265625	1034.626708984375	-362.9610900878906	-654.5465087890625	1185.494995117188	-274.3728637695312	-868.541748046875	1138.936401367188	-365.2180786132812	-821.6968383789062	1367.535888671875	-341.2195129394531	-683.296142578125	1282.049560546875	-285.3814392089844	-904.8695068359375	1247.495239257812	-285.0054321289062	-812.7636108398438	1316.89892578125	-433.9230346679688	-693.183349609375	1358.063720703125	-462.2467346191406	-683.8933715820312	1233.106567382812	-526.2319946289062	-679.6207275390625	1022.69921875	-552.9776000976562	-774.715576171875	1020.586181640625	-527.1202392578125	-631.3995971679688	829.3485717773438	-479.289794921875	-682.72705078125	799.0941772460938	-552.0505981445312	-667.8908081054688	944.1837768554688	-548.6764526367188	-646.5532836914062	672.5834350585938	-471.4275207519531	-668.5287475585938	743.5400390625	-537.2843627929688	-621.1124267578125	750.2889404296875	-492.8556213378906	-828.5625610351562	1356.525634765625	-183.0350646972656	-867.9434204101562	1289.488525390625	-137.7290649414062	-876.916259765625	1021.241271972656	-93.15351867675781	-915.6331176757812	1004.435668945312	-144.7812347412109	-762.38623046875	824.2244873046875	-93.28482818603516	-848.3214111328125	799.236083984375	-72.99460601806641	-871.980224609375	966.6709594726562	-85.27696228027344	-756.2489013671875	664.4481811523438	-88.61758422851562	-753.1799926757812	730.8681640625	-64.36412048339844	-824.1616821289062	726.353759765625	-64.04170227050781	-820.0603637695312	1510.896606445312	-240.1053161621094	-641.4066162109375	1579.985595703125	-300.1571044921875	-703.3148803710938	1564.2822265625	-189.6023101806641	-755.713134765625	1527.237426757812	-385.7099304199219	-678.7013549804688	875.41650390625	-476.4499816894531	-852.9702758789062	871.1668701171875	-139.5835418701172	-732.0781860351562	915.3362426757812	-155.6985015869141	-626.7811889648438	909.5742797851562	-373.4609680175781	-720.2045288085938	454.5689086914062	-445.8226928710938	-677.6836547851562	610.4019165039062	-448.7365112304688	-969.7303466796875	114.8549270629883	-582.80078125	-798.6107177734375	331.905517578125	-496.9443054199219	-866.0950927734375	37.7900276184082	-441.2211303710938	-933.975830078125	60.81117248535156	-448.3979187011719	-887.1973266601562	54.15537261962891	-543.4561157226562	-1033.150024414062	143.6866455078125	-549.8010864257812	-763.5328979492188	485.4801025390625	-150.9379730224609	-817.8876342773438	741.9112548828125	-123.1707153320312	-775.4507446289062	49.29624176025391	-201.6452178955078	-735.4270629882812	339.7053833007812	-160.4928894042969	-577.0146484375	46.42377090454102	-146.6040191650391	-618.1192016601562	50.23117446899414	-211.1810913085938	-682.078857421875	48.64272308349609	-137.7651824951172	-798.464111328125	37.60628128051758	-267.6890563964844	nan	nan	nan	nan	nan	nan	nan	nan	nan	
